<?xml version="1.0" encoding="UTF-8"?>
<svg version="1.1" xmlns="http://www.w3.org/2000/svg" width="409" height="197">
<path d="M0 0 C1.05960937 -0.01611328 2.11921875 -0.03222656 3.2109375 -0.04882812 C20.54295101 -0.05944823 34.22803217 7.4459888 46.625 19.3125 C59.47334769 33.69460348 63.66671116 52.29878654 62.79833984 71.00244141 C61.57755629 87.2715315 49.17024542 104.35727593 40.5 117.79296875 C35.67053877 126.85826994 35.02450266 136.00764626 34.453125 146.09765625 C34.08542452 151.43638442 33.75347105 155.77020068 30.625 160.3125 C29.635 160.6425 28.645 160.9725 27.625 161.3125 C27.645625 162.570625 27.66625 163.82875 27.6875 165.125 C27.73386083 167.95301087 27.54192961 169.56171116 26.625 172.3125 C26.810625 172.9725 26.99625 173.6325 27.1875 174.3125 C27.4040625 175.3025 27.4040625 175.3025 27.625 176.3125 C26.965 177.3025 26.305 178.2925 25.625 179.3125 C26.285 179.9725 26.945 180.6325 27.625 181.3125 C27.32199525 183.64996522 26.98641955 185.98335177 26.625 188.3125 C26.93978446 189.65033393 27.27087656 190.98453709 27.625 192.3125 C27.295 193.9625 26.965 195.6125 26.625 197.3125 C8.805 197.3125 -9.015 197.3125 -27.375 197.3125 C-27.705 196.3225 -28.035 195.3325 -28.375 194.3125 C-27.8490625 193.3534375 -27.8490625 193.3534375 -27.3125 192.375 C-27.003125 191.694375 -26.69375 191.01375 -26.375 190.3125 C-27.0242959 188.97062182 -27.69231862 187.63770503 -28.375 186.3125 C-28.08895102 184.63707024 -27.75718767 182.96864657 -27.375 181.3125 C-27.705 180.3225 -28.035 179.3325 -28.375 178.3125 C-28.05697057 176.64284549 -27.72515049 174.97571482 -27.375 173.3125 C-27.705 172.9825 -28.035 172.6525 -28.375 172.3125 C-28.50657909 170.54349227 -28.6053547 168.7719914 -28.6875 167 C-28.94403799 162.61485464 -28.94403799 162.61485464 -31.3125 159.0625 C-31.993125 158.485 -32.67375 157.9075 -33.375 157.3125 C-35.43440441 151.62105508 -35.82635945 146.06550804 -36.25 140.0625 C-36.90884064 132.26532273 -37.8642528 125.40374434 -41.375 118.3125 C-41.98988281 117.04019531 -41.98988281 117.04019531 -42.6171875 115.7421875 C-45.12476956 110.88286181 -47.99135107 106.38365681 -51.11303711 101.90649414 C-56.37962731 94.32551666 -59.80733096 87.25754238 -62.375 78.3125 C-62.64219849 77.38884644 -62.64219849 77.38884644 -62.91479492 76.4465332 C-63.85168868 72.1020301 -63.60258719 67.61402916 -63.625 63.1875 C-63.645625 62.19234375 -63.66625 61.1971875 -63.6875 60.171875 C-63.77474049 43.46532195 -55.79897056 28.20196342 -44.375 16.3125 C-31.84461616 4.34633607 -16.90231566 -0.05103356 0 0 Z " fill="#F5F6F6" transform="translate(205.375,-0.3125)"/>
<path d="M0 0 C0.33 0 0.66 0 1 0 C1 1.65 1 3.3 1 5 C1.66 4.67 2.32 4.34 3 4 C11.20588235 3.73529412 11.20588235 3.73529412 15 5 C14.44262729 9.02481771 13.5727938 12.41094289 11.9375 16.125 C11.49792969 17.15238281 11.05835938 18.17976563 10.60546875 19.23828125 C10.35587402 19.8204541 10.1062793 20.40262695 9.84912109 21.00244141 C8.11143482 25.09035086 6.42614333 29.19904796 4.75 33.3125 C4.39671631 34.16021973 4.04343262 35.00793945 3.67944336 35.88134766 C3.18069702 37.10990479 3.18069702 37.10990479 2.671875 38.36328125 C2.3737793 39.08813721 2.07568359 39.81299316 1.76855469 40.55981445 C-0.58030782 48.01752754 -0.18619318 55.87703761 -0.18530273 63.60791016 C-0.18750855 65.75833382 -0.20576397 67.90825925 -0.22460938 70.05859375 C-0.22754043 71.42968576 -0.22952715 72.80078018 -0.23046875 74.171875 C-0.23457764 75.4103418 -0.23868652 76.64880859 -0.24291992 77.92480469 C-0.23786587 81.17127776 -0.23786587 81.17127776 2 84 C2 84.99 2 85.98 2 87 C8.43311296 87.09507063 14.65758005 87.15316726 21 86 C21 86.66 21 87.32 21 88 C20.34 88 19.68 88 19 88 C19.020625 89.258125 19.04125 90.51625 19.0625 91.8125 C19.10886083 94.64051087 18.91692961 96.24921116 18 99 C18.185625 99.66 18.37125 100.32 18.5625 101 C18.706875 101.66 18.85125 102.32 19 103 C18.34 103.99 17.68 104.98 17 106 C17.99 106.99 17.99 106.99 19 108 C18.69699525 110.33746522 18.36141955 112.67085177 18 115 C18.31478446 116.33783393 18.64587656 117.67203709 19 119 C18.67 120.65 18.34 122.3 18 124 C1.5 124 -15 124 -32 124 C-32.33 123.01 -32.66 122.02 -33 121 C-32.34 120.01 -31.68 119.02 -31 118 C-31.3574765 116.06874034 -31.3574765 116.06874034 -32 114 C-32 112.33333333 -32 110.66666667 -32 109 C-32.185625 108.319375 -32.37125 107.63875 -32.5625 106.9375 C-33 105 -33 105 -32.53125 103.26953125 C-31.85570824 100.38357713 -31.90531798 97.71074542 -31.9375 94.75 C-31.94652344 93.67234375 -31.95554688 92.5946875 -31.96484375 91.484375 C-31.97644531 90.66453125 -31.98804688 89.8446875 -32 89 C-31.34 89 -30.68 89 -30 89 C-29.93941406 89.75925781 -29.87882813 90.51851563 -29.81640625 91.30078125 C-29.73261719 92.29464844 -29.64882812 93.28851563 -29.5625 94.3125 C-29.44068359 95.79169922 -29.44068359 95.79169922 -29.31640625 97.30078125 C-29.08187441 100.09375599 -29.08187441 100.09375599 -28 103 C-24.7 103 -21.4 103 -18 103 C-18.165 102.34 -18.33 101.68 -18.5 101 C-19.12183299 97.26900206 -19.06408926 93.78126622 -19 90 C-19.66 90 -20.32 90 -21 90 C-21 81.42 -21 72.84 -21 64 C-20.34 64 -19.68 64 -19 64 C-19 63.34 -19 62.68 -19 62 C-18.01 62 -17.02 62 -16 62 C-16.020625 61.195625 -16.04125 60.39125 -16.0625 59.5625 C-16 57 -16 57 -15 56 C-13.00041636 55.95919217 -10.99954746 55.95745644 -9 56 C-12 58 -12 58 -14 58 C-13.67 58.99 -13.34 59.98 -13 61 C-12.01 61 -11.02 61 -10 61 C-9.67 60.01 -9.34 59.02 -9 58 C-8.34 58 -7.68 58 -7 58 C-7 59.32 -7 60.64 -7 62 C-6.34 62 -5.68 62 -5 62 C-4.67 58.37 -4.34 54.74 -4 51 C-12.55206891 50.84911129 -12.55206891 50.84911129 -21 52 C-21.33 48.04 -21.66 44.08 -22 40 C-19 44 -19 44 -19 48 C-14.545 47.505 -14.545 47.505 -10 47 C-10 43.04 -10 39.08 -10 35 C-9.67 35 -9.34 35 -9 35 C-8.67 38.96 -8.34 42.92 -8 47 C-8 40.4 -8 33.8 -8 27 C-5.96879293 30.04681061 -5.75340125 30.60118324 -5.8046875 34.01171875 C-5.81113281 34.76904297 -5.81757813 35.52636719 -5.82421875 36.30664062 C-5.84097656 37.09232422 -5.85773438 37.87800781 -5.875 38.6875 C-5.88402344 39.48478516 -5.89304688 40.28207031 -5.90234375 41.10351562 C-5.92588415 43.069139 -5.96175453 45.03460775 -6 47 C-5.01 47.33 -4.02 47.66 -3 48 C-2.52433594 46.59427734 -2.52433594 46.59427734 -2.0390625 45.16015625 C2.50815996 31.92049936 7.73755142 18.96891972 13 6 C9.04 6 5.08 6 1 6 C0.67 7.98 0.34 9.96 0 12 C-0.061875 11.38125 -0.12375 10.7625 -0.1875 10.125 C-0.80801028 7.80310082 -0.80801028 7.80310082 -3.125 6.875 C-6.49055043 5.85070204 -9.30068984 5.80405434 -12.8125 5.875 C-14.55466797 5.90207031 -14.55466797 5.90207031 -16.33203125 5.9296875 C-17.65267578 5.96449219 -17.65267578 5.96449219 -19 6 C-19 8.97 -19 11.94 -19 15 C-21 11 -21 11 -22 5 C-28.435 5.495 -28.435 5.495 -35 6 C-34.67 7.65 -34.34 9.3 -34 11 C-34.66 11 -35.32 11 -36 11 C-36.33 9.35 -36.66 7.7 -37 6 C-32.37802694 3.78145293 -29.23175837 2.61718841 -24 3 C-23.67 2.34 -23.34 1.68 -23 1 C-22.67 1.33 -22.34 1.66 -22 2 C-19.96260394 2.21259785 -17.91930414 2.36961158 -15.875 2.5 C-11.2019835 2.82387243 -6.62166347 3.24763618 -2 4 C-1.34 2.68 -0.68 1.36 0 0 Z " fill="#B2B4B6" transform="translate(214,73)"/>
<path d="M0 0 C1.50433594 0.01353516 1.50433594 0.01353516 3.0390625 0.02734375 C3.80992187 0.03894531 4.58078125 0.05054687 5.375 0.0625 C6.035 1.7125 6.695 3.3625 7.375 5.0625 C7.705 3.4125 8.035 1.7625 8.375 0.0625 C10.4372048 0.008152 12.49982816 -0.03044961 14.5625 -0.0625 C15.71105469 -0.08570312 16.85960937 -0.10890625 18.04296875 -0.1328125 C21.33722999 0.06028605 23.49512405 0.47251364 26.375 2.0625 C26.87 3.5475 26.87 3.5475 27.375 5.0625 C27.705 3.7425 28.035 2.4225 28.375 1.0625 C32.335 1.0625 36.295 1.0625 40.375 1.0625 C39.48386114 5.51819431 38.1816164 9.41156195 36.50390625 13.59375 C36.08032082 14.66405457 36.08032082 14.66405457 35.6481781 15.75598145 C34.74856402 18.02641017 33.84312471 20.29446301 32.9375 22.5625 C32.33229705 24.08708671 31.72747542 25.61182486 31.12304688 27.13671875 C28.88344919 32.78254409 26.63204243 38.42362514 24.375 44.0625 C22.89 43.5675 22.89 43.5675 21.375 43.0625 C21.045 37.1225 20.715 31.1825 20.375 25.0625 C20.375 31.0025 20.375 36.9425 20.375 43.0625 C18.89 42.5675 18.89 42.5675 17.375 42.0625 C15.89 42.5575 15.89 42.5575 14.375 43.0625 C11.375 44.0625 11.375 44.0625 8.375 43.0625 C7.64453125 41.21484375 7.64453125 41.21484375 7.1875 39 C7.02894531 38.26652344 6.87039062 37.53304687 6.70703125 36.77734375 C6.59746094 36.21144531 6.48789063 35.64554688 6.375 35.0625 C5.715 35.0625 5.055 35.0625 4.375 35.0625 C2.73852837 31.56775398 1.1179595 28.06585031 -0.5 24.5625 C-1.19029297 23.08910156 -1.19029297 23.08910156 -1.89453125 21.5859375 C-5.0272634 14.77565021 -7.625 8.66882867 -7.625 1.0625 C-4.98041621 -0.25979189 -2.94738699 -0.03427194 0 0 Z " fill="#E7E7E8" transform="translate(186.625,77.9375)"/>
<path d="M0 0 C0 3.63493722 -0.85497011 4.18211875 -3 7 C-9.38283544 20.48568585 -13.30580552 35.46790637 -9 50 C-8.875 53.4375 -8.875 53.4375 -9 56 C-8.34 56 -7.68 56 -7 56 C-6.86464844 56.58265625 -6.72929687 57.1653125 -6.58984375 57.765625 C-4.86923631 64.31835751 -2.10938547 69.60144686 1.4765625 75.3359375 C2.79885408 77.64825252 3.54461401 79.40306909 4 82 C4.66 82 5.32 82 6 82 C7.30203187 84.49505641 8.59160266 86.99537682 9.875 89.5 C10.23980469 90.19609375 10.60460937 90.8921875 10.98046875 91.609375 C16.09739873 101.65716477 16.72363875 111.78084107 17.59179688 122.88476562 C17.70201172 124.01205078 17.81222656 125.13933594 17.92578125 126.30078125 C18.01255127 127.32341064 18.09932129 128.34604004 18.1887207 129.3996582 C18.79183908 132.20094095 18.79183908 132.20094095 21.37963867 133.85620117 C23.98172601 135.20002635 23.98172601 135.20002635 27 135 C27.33 135.33 27.66 135.66 28 136 C31.45812169 136.33338596 31.45812169 136.33338596 35 136 C35.66 135.01 36.32 134.02 37 133 C37 134.98 37 136.96 37 139 C37.66 139 38.32 139 39 139 C39.0825 140.27875 39.165 141.5575 39.25 142.875 C39.45869931 145.05333418 39.45869931 145.05333418 40 147 C41.92064793 148.5899433 41.92064793 148.5899433 44 149 C42.68 149 41.36 149 40 149 C40 149.99 40 150.98 40 152 C38.37581255 152.08090971 36.75048255 152.13914995 35.125 152.1875 C34.22007812 152.22230469 33.31515625 152.25710937 32.3828125 152.29296875 C31.20332031 152.14794922 31.20332031 152.14794922 30 152 C27.71937172 148.57905758 27.78074993 147.31812778 27.875 143.3125 C27.89304688 142.31863281 27.91109375 141.32476562 27.9296875 140.30078125 C27.95289063 139.54152344 27.97609375 138.78226563 28 138 C27.34 138 26.68 138 26 138 C26.08378906 139.03640625 26.16757813 140.0728125 26.25390625 141.140625 C26.35710782 142.51039132 26.45995374 143.88018447 26.5625 145.25 C26.64661133 146.27287109 26.64661133 146.27287109 26.73242188 147.31640625 C26.98490251 150.78380699 26.98241347 153.66474755 26 157 C26.33 157.33 26.66 157.66 27 158 C27 160.33333333 27 162.66666667 27 165 C27.33 165.99 27.66 166.98 28 168 C27.34 168 26.68 168 26 168 C26 169.65 26 171.3 26 173 C24.68 173 23.36 173 22 173 C21.67 172.01 21.34 171.02 21 170 C21.5259375 169.0409375 21.5259375 169.0409375 22.0625 168.0625 C22.371875 167.381875 22.68125 166.70125 23 166 C22.3507041 164.65812182 21.68268138 163.32520503 21 162 C21.28604898 160.32457024 21.61781233 158.65614657 22 157 C21.67 156.01 21.34 155.02 21 154 C21.31802943 152.33034549 21.64984951 150.66321482 22 149 C21.67 148.67 21.34 148.34 21 148 C20.86842091 146.23099227 20.7696453 144.4594914 20.6875 142.6875 C20.43096201 138.30235464 20.43096201 138.30235464 18.0625 134.75 C17.381875 134.1725 16.70125 133.595 16 133 C13.94059559 127.30855508 13.54864055 121.75300804 13.125 115.75 C12.46615936 107.95282273 11.5107472 101.09124434 8 94 C7.38511719 92.72769531 7.38511719 92.72769531 6.7578125 91.4296875 C4.25023044 86.57036181 1.38364893 82.07115681 -1.73803711 77.59399414 C-7.00462731 70.01301666 -10.43233096 62.94504238 -13 54 C-13.26719849 53.07634644 -13.26719849 53.07634644 -13.53979492 52.1340332 C-14.47668868 47.7895301 -14.22758719 43.30152916 -14.25 38.875 C-14.270625 37.87984375 -14.29125 36.8846875 -14.3125 35.859375 C-14.36335863 26.11994729 -11.88873881 18.20534234 -7.5625 9.5625 C-6.98628906 8.38816406 -6.41007813 7.21382812 -5.81640625 6.00390625 C-4.09262014 3.1531718 -2.80432056 1.71957238 0 0 Z " fill="#DEDEE0" transform="translate(156,24)"/>
<path d="M0 0 C1.4540625 0.0309375 1.4540625 0.0309375 2.9375 0.0625 C-0.0625 2.0625 -0.0625 2.0625 -2.0625 2.0625 C-1.7325 3.0525 -1.4025 4.0425 -1.0625 5.0625 C-0.0725 5.0625 0.9175 5.0625 1.9375 5.0625 C2.5975 4.0725 3.2575 3.0825 3.9375 2.0625 C3.9375 3.3825 3.9375 4.7025 3.9375 6.0625 C5.9175 6.7225 7.8975 7.3825 9.9375 8.0625 C7.08271674 9.96568884 5.51808692 10.5244099 2.25 11.1875 C1.44175781 11.35507813 0.63351563 11.52265625 -0.19921875 11.6953125 C-0.81410156 11.81648437 -1.42898437 11.93765625 -2.0625 12.0625 C-2.0625 14.3725 -2.0625 16.6825 -2.0625 19.0625 C-2.7225 19.3925 -3.3825 19.7225 -4.0625 20.0625 C-4.0625 18.4125 -4.0625 16.7625 -4.0625 15.0625 C-4.7225 15.0625 -5.3825 15.0625 -6.0625 15.0625 C-6.15938221 20.50943314 -6.19112175 25.70154667 -5.0625 31.0625 C-4.4025 31.0625 -3.7425 31.0625 -3.0625 31.0625 C-3.0625 29.4125 -3.0625 27.7625 -3.0625 26.0625 C-2.4025 26.0625 -1.7425 26.0625 -1.0625 26.0625 C-1.0625 27.0525 -1.0625 28.0425 -1.0625 29.0625 C-0.0725 29.0625 0.9175 29.0625 1.9375 29.0625 C2.2675 23.7825 2.5975 18.5025 2.9375 13.0625 C3.2675 13.0625 3.5975 13.0625 3.9375 13.0625 C3.96459444 15.14576131 3.98393873 17.22912441 4 19.3125 C4.01160156 20.47265625 4.02320313 21.6328125 4.03515625 22.828125 C3.95532092 25.47227128 3.72393778 27.56076091 2.9375 30.0625 C4.9175 30.0625 6.8975 30.0625 8.9375 30.0625 C8.9375 29.4025 8.9375 28.7425 8.9375 28.0625 C9.5975 28.0625 10.2575 28.0625 10.9375 28.0625 C10.9375 28.7225 10.9375 29.3825 10.9375 30.0625 C11.5975 30.0625 12.2575 30.0625 12.9375 30.0625 C12.9375 31.3825 12.9375 32.7025 12.9375 34.0625 C11.6175 34.0625 10.2975 34.0625 8.9375 34.0625 C9.2675 38.0225 9.5975 41.9825 9.9375 46.0625 C9.2775 46.0625 8.6175 46.0625 7.9375 46.0625 C7.9375 46.7225 7.9375 47.3825 7.9375 48.0625 C3.6475 48.0625 -0.6425 48.0625 -5.0625 48.0625 C-6.95858907 42.3742328 -7.25857616 39.74870859 -7.0625 34.0625 C-7.7225 34.0625 -8.3825 34.0625 -9.0625 34.0625 C-9.0625 25.4825 -9.0625 16.9025 -9.0625 8.0625 C-8.4025 8.0625 -7.7425 8.0625 -7.0625 8.0625 C-7.0625 7.4025 -7.0625 6.7425 -7.0625 6.0625 C-6.0725 6.0625 -5.0825 6.0625 -4.0625 6.0625 C-4.083125 5.258125 -4.10375 4.45375 -4.125 3.625 C-4.03366838 -0.11959638 -3.80090148 0.07756942 0 0 Z " fill="#8F9295" transform="translate(202.0625,128.9375)"/>
<path d="M0 0 C0.66 0 1.32 0 2 0 C2.06058594 0.74765625 2.12117187 1.4953125 2.18359375 2.265625 C2.26738281 3.25046875 2.35117188 4.2353125 2.4375 5.25 C2.51871094 6.22453125 2.59992188 7.1990625 2.68359375 8.203125 C2.92744423 10.92793153 2.92744423 10.92793153 3.5703125 13.23828125 C4 15 4 15 3.4375 16.9375 C2.68325315 19.55172668 2.68325315 19.55172668 5 24 C12.59 24 20.18 24 28 24 C28 25.65 28 27.3 28 29 C20.41 29 12.82 29 5 29 C5 29.66 5 30.32 5 31 C12.59 31 20.18 31 28 31 C28 31.66 28 32.32 28 33 C31.63 33 35.26 33 39 33 C39 32.34 39 31.68 39 31 C39.66 31 40.32 31 41 31 C40.85950482 29.52031676 40.71245174 28.04125484 40.5625 26.5625 C40.48128906 25.73878906 40.40007812 24.91507813 40.31640625 24.06640625 C40.21069185 22.01337975 40.21069185 22.01337975 39 21 C38.95936168 19.33382885 38.957279 17.66611905 39 16 C39.66 16 40.32 16 41 16 C41 11.05 41 6.1 41 1 C41.99 0.67 42.98 0.34 44 0 C43.98839844 1.24136719 43.97679687 2.48273438 43.96484375 3.76171875 C43.95546132 5.40364432 43.9463616 7.04557153 43.9375 8.6875 C43.92493164 9.91243164 43.92493164 9.91243164 43.91210938 11.16210938 C43.89557949 15.24499084 43.96964902 19.01651707 45 23 C44.34 23 43.68 23 43 23 C43.15597656 23.61488281 43.31195313 24.22976562 43.47265625 24.86328125 C43.66730469 25.67152344 43.86195313 26.47976562 44.0625 27.3125 C44.25972656 28.11300781 44.45695312 28.91351563 44.66015625 29.73828125 C45 32 45 32 44 35 C29.48 35 14.96 35 0 35 C-0.495 33.515 -0.495 33.515 -1 32 C-0.01 30.515 -0.01 30.515 1 29 C0.6425235 27.06874034 0.6425235 27.06874034 0 25 C0 23.33333333 0 21.66666667 0 20 C-0.185625 19.319375 -0.37125 18.63875 -0.5625 17.9375 C-1 16 -1 16 -0.53125 14.26953125 C0.14429176 11.38357713 0.09468202 8.71074542 0.0625 5.75 C0.05347656 4.67234375 0.04445312 3.5946875 0.03515625 2.484375 C0.02355469 1.66453125 0.01195312 0.8446875 0 0 Z " fill="#B6C1CB" transform="translate(182,162)"/>
<path d="M0 0 C3.87230393 0.48403799 7.59736879 0.67581551 11.5 0.625 C17.24081918 0.56543249 22.85955858 0.99632929 28.5625 1.625 C28.8925 0.965 29.2225 0.305 29.5625 -0.375 C30.82555335 4.69976794 31.83286084 9.35296354 31.5625 14.625 C30.9025 14.625 30.2425 14.625 29.5625 14.625 C29.5625 15.285 29.5625 15.945 29.5625 16.625 C26.57655576 18.11797212 23.85396376 17.74255228 20.5625 17.625 C19.9025 17.295 19.2425 16.965 18.5625 16.625 C18.5625 15.965 18.5625 15.305 18.5625 14.625 C17.94503906 14.6971875 17.32757813 14.769375 16.69140625 14.84375 C2.02576179 16.45094391 2.02576179 16.45094391 -4.4375 14.625 C-4.4375 13.965 -4.4375 13.305 -4.4375 12.625 C3.1525 12.625 10.7425 12.625 18.5625 12.625 C18.5625 10.975 18.5625 9.325 18.5625 7.625 C17.593125 7.79 16.62375 7.955 15.625 8.125 C11.25163022 8.74345633 6.97072081 8.78076752 2.5625 8.625 C1.28375 8.58375 0.005 8.5425 -1.3125 8.5 C-4.4375 7.625 -4.4375 7.625 -6.375 4.5625 C-6.725625 3.593125 -7.07625 2.62375 -7.4375 1.625 C-4.09610296 -0.60259803 -3.73040199 -0.55129093 0 0 Z " fill="#E1E8EE" transform="translate(191.4375,178.375)"/>
<path d="M0 0 C3.96 0 7.92 0 12 0 C11.10886114 4.45569431 9.8066164 8.34906195 8.12890625 12.53125 C7.70532082 13.60155457 7.70532082 13.60155457 7.2731781 14.69348145 C6.37356402 16.96391017 5.46812471 19.23196301 4.5625 21.5 C3.95729705 23.02458671 3.35247542 24.54932486 2.74804688 26.07421875 C0.50844919 31.72004409 -1.74295757 37.36112514 -4 43 C-4.99 42.67 -5.98 42.34 -7 42 C-7.25477428 38.5638936 -7.47439003 35.12642199 -7.6875 31.6875 C-7.76033203 30.71103516 -7.83316406 29.73457031 -7.90820312 28.72851562 C-7.96298828 27.79072266 -8.01777344 26.85292969 -8.07421875 25.88671875 C-8.13182373 25.02264404 -8.18942871 24.15856934 -8.2487793 23.26831055 C-7.9419779 20.47096826 -7.0875414 19.79060234 -5 18 C-4.31998451 16.03934845 -4.31998451 16.03934845 -4 13.875 C-3.06942989 9.07231187 -1.61231822 4.6170931 0 0 Z " fill="#EDEDEE" transform="translate(215,79)"/>
<path d="M0 0 C0.33 0 0.66 0 1 0 C1.08636719 0.59167969 1.17273438 1.18335938 1.26171875 1.79296875 C2.27608993 7.49764334 3.49437236 10.3243564 8 14 C8.99 13.67 9.98 13.34 11 13 C11.66 13.66 12.32 14.32 13 15 C16.5 15.41666667 16.5 15.41666667 20 15 C20.66 14.01 21.32 13.02 22 12 C22 13.98 22 15.96 22 18 C22.66 18 23.32 18 24 18 C24.12375 19.918125 24.12375 19.918125 24.25 21.875 C24.45869931 24.05333418 24.45869931 24.05333418 25 26 C26.92064793 27.5899433 26.92064793 27.5899433 29 28 C27.68 28 26.36 28 25 28 C25 28.99 25 29.98 25 31 C23.37581255 31.08090971 21.75048255 31.13914995 20.125 31.1875 C19.22007812 31.22230469 18.31515625 31.25710937 17.3828125 31.29296875 C16.20332031 31.14794922 16.20332031 31.14794922 15 31 C12.71937172 27.57905758 12.78074993 26.31812778 12.875 22.3125 C12.89304688 21.31863281 12.91109375 20.32476562 12.9296875 19.30078125 C12.95289063 18.54152344 12.97609375 17.78226563 13 17 C12.34 17 11.68 17 11 17 C11.08378906 18.03640625 11.16757813 19.0728125 11.25390625 20.140625 C11.35710782 21.51039132 11.45995374 22.88018447 11.5625 24.25 C11.61857422 24.93191406 11.67464844 25.61382812 11.73242188 26.31640625 C11.98490251 29.78380699 11.98241347 32.66474755 11 36 C11.33 36.33 11.66 36.66 12 37 C12 39.33333333 12 41.66666667 12 44 C12.33 44.99 12.66 45.98 13 47 C12.34 47 11.68 47 11 47 C11 48.65 11 50.3 11 52 C9.68 52 8.36 52 7 52 C6.505 50.515 6.505 50.515 6 49 C6.350625 48.360625 6.70125 47.72125 7.0625 47.0625 C7.5265625 46.0415625 7.5265625 46.0415625 8 45 C7.3507041 43.65812182 6.68268138 42.32520503 6 41 C6.28604898 39.32457024 6.61781233 37.65614657 7 36 C6.505 34.515 6.505 34.515 6 33 C6.31802943 31.33034549 6.64984951 29.66321482 7 28 C6.67 27.67 6.34 27.34 6 27 C5.86842091 25.23099227 5.7696453 23.4594914 5.6875 21.6875 C5.36959822 17.19430012 5.36959822 17.19430012 3 13.4375 C2.34 12.963125 1.68 12.48875 1 12 C-0.26237731 9.47524538 -0.09856404 7.68799534 -0.0625 4.875 C-0.05347656 3.96492187 -0.04445312 3.05484375 -0.03515625 2.1171875 C-0.02355469 1.41851562 -0.01195312 0.71984375 0 0 Z " fill="#D1DEE9" transform="translate(171,145)"/>
<path d="M0 0 C0.33 0 0.66 0 1 0 C2.33851709 19.22259272 -10.04264427 36.78320533 -20.08984375 52.41015625 C-25.16508676 61.23327103 -25.60958598 70.85564342 -26.171875 80.78515625 C-26.54936748 86.26605673 -27.06448618 90.30955944 -30 95 C-32.31 95 -34.62 95 -37 95 C-36.505 94.01 -36.505 94.01 -36 93 C-34.68 93 -33.36 93 -32 93 C-31.92652344 91.85337891 -31.92652344 91.85337891 -31.8515625 90.68359375 C-30.81439224 75.82344748 -29.81463793 62.2139779 -22.1953125 49.2109375 C-21.01604248 47.02967335 -20.17830334 44.90476344 -19.375 42.5625 C-18 39 -18 39 -15 37 C-13.60940476 34.0058404 -13.60940476 34.0058404 -12.4375 30.5625 C-11.16530689 27.01541952 -10.09455009 24.14182514 -8 21 C-7.34 21 -6.68 21 -6 21 C-5.87625 20.113125 -5.7525 19.22625 -5.625 18.3125 C-4.30232558 11.30232558 -4.30232558 11.30232558 -2 9 C-1.79395915 7.67218122 -1.6337041 6.33704105 -1.5 5 C-1.11111111 1.11111111 -1.11111111 1.11111111 0 0 Z " fill="#E5E5E6" transform="translate(266,65)"/>
<path d="M0 0 C1.05960938 -0.01611328 2.11921875 -0.03222656 3.2109375 -0.04882812 C20.54295101 -0.05944823 34.22803217 7.4459888 46.625 19.3125 C55.12009152 28.82168268 61.84191229 43.27880328 61.6875 56 C61.68298828 56.70189453 61.67847656 57.40378906 61.67382812 58.12695312 C61.66206927 59.85550538 61.64413454 61.58401365 61.625 63.3125 C59.40557085 59.98335627 59.20803358 58.1713283 58.75 54.25 C57.86096685 48.06780022 56.27606322 42.94277107 53.625 37.3125 C53.15707031 36.28640625 52.68914062 35.2603125 52.20703125 34.203125 C48.43414127 26.24998931 44.45558759 21.45774772 37.25 16.50390625 C35.625 15.3125 35.625 15.3125 33.5625 13.1875 C29.8823071 9.626023 25.63190148 8.04880904 20.625 7.3125 C20.625 6.6525 20.625 5.9925 20.625 5.3125 C19.59375 5.168125 18.5625 5.02375 17.5 4.875 C15.34260945 4.5618304 13.1870667 4.22345135 11.05078125 3.7890625 C6.33793399 3.13345547 1.68995065 3.12826629 -3.0625 3.125 C-4.4865918 3.10663086 -4.4865918 3.10663086 -5.93945312 3.08789062 C-6.85017578 3.08595703 -7.76089844 3.08402344 -8.69921875 3.08203125 C-9.52510498 3.07792236 -10.35099121 3.07381348 -11.2019043 3.06958008 C-13.66897432 3.17710462 -13.66897432 3.17710462 -16.375 5.3125 C-20.2782099 6.58991415 -23.24739983 7.3125 -27.375 7.3125 C-27.375 7.9725 -27.375 8.6325 -27.375 9.3125 C-34 12.3125 -34 12.3125 -37.375 12.3125 C-34.43439686 9.08551984 -31.58676786 7.13458539 -27.6875 5.1875 C-26.71425781 4.68992187 -25.74101562 4.19234375 -24.73828125 3.6796875 C-16.58048062 0.36350838 -8.74064194 -0.02639083 0 0 Z " fill="#CDCECF" transform="translate(205.375,-0.3125)"/>
<path d="M0 0 C0.33 0 0.66 0 1 0 C1 1.65 1 3.3 1 5 C1.66 4.67 2.32 4.34 3 4 C11.20588235 3.73529412 11.20588235 3.73529412 15 5 C14.44262729 9.02481771 13.5727938 12.41094289 11.9375 16.125 C11.49792969 17.15496094 11.05835938 18.18492188 10.60546875 19.24609375 C10.23107666 20.11983643 10.23107666 20.11983643 9.84912109 21.01123047 C8.12108072 25.05856138 6.4253519 29.11809016 4.75 33.1875 C4.39671631 34.01846191 4.04343262 34.84942383 3.67944336 35.70556641 C1.42617515 41.21234206 0.40602767 46.05885979 0 52 C-0.99 52.33 -1.98 52.66 -3 53 C-3 54.98 -3 56.96 -3 59 C-3.33 59 -3.66 59 -4 59 C-4 56.36 -4 53.72 -4 51 C-12.54824466 50.84126912 -12.54824466 50.84126912 -21 52 C-21.33 48.04 -21.66 44.08 -22 40 C-19 44 -19 44 -19 48 C-14.545 47.505 -14.545 47.505 -10 47 C-10 43.04 -10 39.08 -10 35 C-9.67 35 -9.34 35 -9 35 C-8.67 38.96 -8.34 42.92 -8 47 C-8 40.4 -8 33.8 -8 27 C-5.96879293 30.04681061 -5.75340125 30.60118324 -5.8046875 34.01171875 C-5.81113281 34.76904297 -5.81757813 35.52636719 -5.82421875 36.30664062 C-5.84097656 37.09232422 -5.85773438 37.87800781 -5.875 38.6875 C-5.88402344 39.48478516 -5.89304688 40.28207031 -5.90234375 41.10351562 C-5.92588415 43.069139 -5.96175453 45.03460775 -6 47 C-5.01 47.33 -4.02 47.66 -3 48 C-2.52433594 46.59427734 -2.52433594 46.59427734 -2.0390625 45.16015625 C2.50815996 31.92049936 7.73755142 18.96891972 13 6 C9.04 6 5.08 6 1 6 C0.67 7.98 0.34 9.96 0 12 C-0.061875 11.38125 -0.12375 10.7625 -0.1875 10.125 C-0.80801028 7.80310082 -0.80801028 7.80310082 -3.125 6.875 C-6.49055043 5.85070204 -9.30068984 5.80405434 -12.8125 5.875 C-14.55466797 5.90207031 -14.55466797 5.90207031 -16.33203125 5.9296875 C-17.65267578 5.96449219 -17.65267578 5.96449219 -19 6 C-19 8.97 -19 11.94 -19 15 C-21 11 -21 11 -22 5 C-28.435 5.495 -28.435 5.495 -35 6 C-34.67 7.65 -34.34 9.3 -34 11 C-34.66 11 -35.32 11 -36 11 C-36.33 9.35 -36.66 7.7 -37 6 C-32.37802694 3.78145293 -29.23175837 2.61718841 -24 3 C-23.67 2.34 -23.34 1.68 -23 1 C-22.67 1.33 -22.34 1.66 -22 2 C-19.96260394 2.21259785 -17.91930414 2.36961158 -15.875 2.5 C-11.2019835 2.82387243 -6.62166347 3.24763618 -2 4 C-1.34 2.68 -0.68 1.36 0 0 Z " fill="#8D8C8D" transform="translate(214,73)"/>
<path d="M0 0 C1.81242052 -0.02687279 3.62495233 -0.04633715 5.4375 -0.0625 C6.44683594 -0.07410156 7.45617187 -0.08570313 8.49609375 -0.09765625 C11 0 11 0 12 1 C12.07271741 3.35313555 12.08370868 5.70833668 12.0625 8.0625 C12.05347656 9.35285156 12.04445312 10.64320313 12.03515625 11.97265625 C12.02355469 12.97167969 12.01195312 13.97070312 12 15 C11.01 15 10.02 15 9 15 C9 15.66 9 16.32 9 17 C4.94320623 17.02477373 0.88644194 17.04289493 -3.17041016 17.05493164 C-4.54964973 17.05995118 -5.92888402 17.06676819 -7.30810547 17.07543945 C-9.29392183 17.0876092 -11.27977749 17.09271633 -13.265625 17.09765625 C-14.45961914 17.10289307 -15.65361328 17.10812988 -16.88378906 17.11352539 C-19.48326425 17.01882499 -21.5274154 16.71662445 -24 16 C-24.66 16 -25.32 16 -26 16 C-25.67 15.01 -25.34 14.02 -25 13 C-16.94641862 12.85474503 -9.02124152 13.28586721 -1 14 C0.04976964 10.85069107 0.10131595 8.61185544 0.0625 5.3125 C0.05347656 4.31863281 0.04445312 3.32476562 0.03515625 2.30078125 C0.02355469 1.54152344 0.01195312 0.78226563 0 0 Z " fill="#DBE1E7" transform="translate(211,163)"/>
<path d="M0 0 C0 5.28 0 10.56 0 16 C-1.65 16.66 -3.3 17.32 -5 18 C-5.33 16.68 -5.66 15.36 -6 14 C-6.33 15.65 -6.66 17.3 -7 19 C-7.99 19 -8.98 19 -10 19 C-10 18.01 -10 17.02 -10 16 C-10.66 16 -11.32 16 -12 16 C-12 17.65 -12 19.3 -12 21 C-12.66 21 -13.32 21 -14 21 C-15.97513861 16.06215348 -16.26186347 12.2372694 -16 7 C-15.67 6.34 -15.34 5.68 -15 5 C-14.34 5 -13.68 5 -13 5 C-12.67 6.32 -12.34 7.64 -12 9 C-12 6.36 -12 3.72 -12 1 C-10.18755015 0.83278881 -8.37503867 0.66624559 -6.5625 0.5 C-5.55316406 0.4071875 -4.54382813 0.314375 -3.50390625 0.21875 C-1 0 -1 0 0 0 Z " fill="#DADADC" transform="translate(211,139)"/>
<path d="M0 0 C1.32 0 2.64 0 4 0 C4.125 6.625 4.125 6.625 3 10 C3.185625 10.66 3.37125 11.32 3.5625 12 C3.706875 12.66 3.85125 13.32 4 14 C3.01 15.485 3.01 15.485 2 17 C2.66 17.66 3.32 18.32 4 19 C3.69699525 21.33746522 3.36141955 23.67085177 3 26 C3.31478446 27.33783393 3.64587656 28.67203709 4 30 C3.5625 32.75 3.5625 32.75 3 35 C1.02 35 -0.96 35 -3 35 C-3.19397476 33.02145742 -3.38001321 31.0421352 -3.5625 29.0625 C-3.66691406 27.96035156 -3.77132812 26.85820312 -3.87890625 25.72265625 C-3.91886719 24.82417969 -3.95882812 23.92570312 -4 23 C-3.67 22.67 -3.34 22.34 -3 22 C-3.165 21.195625 -3.33 20.39125 -3.5 19.5625 C-4 17 -4 17 -3 15 C-2.34 15 -1.68 15 -1 15 C-0.67 10.05 -0.34 5.1 0 0 Z " fill="#E4E9EE" transform="translate(229,162)"/>
<path d="M0 0 C1.4540625 0.0309375 1.4540625 0.0309375 2.9375 0.0625 C-0.0625 2.0625 -0.0625 2.0625 -2.0625 2.0625 C-1.7325 3.0525 -1.4025 4.0425 -1.0625 5.0625 C-0.0725 5.0625 0.9175 5.0625 1.9375 5.0625 C2.5975 4.0725 3.2575 3.0825 3.9375 2.0625 C3.9375 3.3825 3.9375 4.7025 3.9375 6.0625 C5.9175 6.7225 7.8975 7.3825 9.9375 8.0625 C7.08271674 9.96568884 5.51808692 10.5244099 2.25 11.1875 C1.44175781 11.35507813 0.63351563 11.52265625 -0.19921875 11.6953125 C-0.81410156 11.81648437 -1.42898437 11.93765625 -2.0625 12.0625 C-2.0625 14.3725 -2.0625 16.6825 -2.0625 19.0625 C-2.7225 19.3925 -3.3825 19.7225 -4.0625 20.0625 C-4.0625 18.4125 -4.0625 16.7625 -4.0625 15.0625 C-4.7225 15.0625 -5.3825 15.0625 -6.0625 15.0625 C-6.15938221 20.50943314 -6.19112175 25.70154667 -5.0625 31.0625 C-6.3825 31.0625 -7.7025 31.0625 -9.0625 31.0625 C-9.0625 23.4725 -9.0625 15.8825 -9.0625 8.0625 C-8.4025 8.0625 -7.7425 8.0625 -7.0625 8.0625 C-7.0625 7.4025 -7.0625 6.7425 -7.0625 6.0625 C-6.0725 6.0625 -5.0825 6.0625 -4.0625 6.0625 C-4.083125 5.258125 -4.10375 4.45375 -4.125 3.625 C-4.03366838 -0.11959638 -3.80090148 0.07756942 0 0 Z " fill="#8D8E91" transform="translate(202.0625,128.9375)"/>
<path d="M0 0 C0.0270043 1.45823212 0.04639787 2.91660675 0.0625 4.375 C0.07410156 5.18710938 0.08570313 5.99921875 0.09765625 6.8359375 C0 9 0 9 -1 11 C-1.66 11 -2.32 11 -3 11 C-3 9.68 -3 8.36 -3 7 C-3.66 7 -4.32 7 -5 7 C-5.33 8.32 -5.66 9.64 -6 11 C-7.32 10.67 -8.64 10.34 -10 10 C-10 9.01 -10 8.02 -10 7 C-9.34 6.67 -8.68 6.34 -8 6 C-8.99 6 -9.98 6 -11 6 C-11.33 7.65 -11.66 9.3 -12 11 C-13.65 11.33 -15.3 11.66 -17 12 C-16.67 8.37 -16.34 4.74 -16 1 C-10.23911448 -1.30435421 -6.02683381 -2.0089446 0 0 Z " fill="#E8E8E9" transform="translate(210,124)"/>
<path d="M0 0 C0.33 0 0.66 0 1 0 C1.33 2.31 1.66 4.62 2 7 C2.99 7.33 3.98 7.66 5 8 C5 5.36 5 2.72 5 0 C6.98 0 8.96 0 11 0 C11.33 2.64 11.66 5.28 12 8 C12.99 8.33 13.98 8.66 15 9 C15 6.03 15 3.06 15 0 C15.33 0 15.66 0 16 0 C16.33 3.96 16.66 7.92 17 12 C16.34 12 15.68 12 15 12 C15 12.66 15 13.32 15 14 C10.71 14 6.42 14 2 14 C0.10391093 8.3117328 -0.19607616 5.68620859 0 0 Z " fill="#C2C9CE" transform="translate(195,163)"/>
<path d="M0 0 C12.18665717 6.39799501 17.85991405 21.57974216 22 34 C22.07029121 36.57265818 22.09370832 39.11641431 22.0625 41.6875 C22.05798828 42.38939453 22.05347656 43.09128906 22.04882812 43.81445312 C22.03706927 45.54300538 22.01913454 47.27151365 22 49 C19.78057085 45.67085627 19.58303358 43.8588283 19.125 39.9375 C18.23596685 33.75530022 16.65106322 28.63027107 14 23 C13.53207031 21.97390625 13.06414062 20.9478125 12.58203125 19.890625 C10.00128134 14.45048381 7.73441406 9.88464743 3 6 C2.071875 5.236875 1.14375 4.47375 0.1875 3.6875 C-0.534375 3.130625 -1.25625 2.57375 -2 2 C-1.34 2 -0.68 2 0 2 C0 1.34 0 0.68 0 0 Z " fill="#D6D7D8" transform="translate(245,14)"/>
<path d="M0 0 C2.03120707 3.04681061 2.24659875 3.60118324 2.1953125 7.01171875 C2.18886719 7.76904297 2.18242187 8.52636719 2.17578125 9.30664062 C2.15902344 10.09232422 2.14226562 10.87800781 2.125 11.6875 C2.11597656 12.48478516 2.10695312 13.28207031 2.09765625 14.10351562 C2.07411585 16.069139 2.03824547 18.03460775 2 20 C2.99 20.33 3.98 20.66 5 21 C5.66 20.34 6.32 19.68 7 19 C7.33 20.98 7.66 22.96 8 25 C7.01 25.33 6.02 25.66 5 26 C5 27.98 5 29.96 5 32 C4.67 32 4.34 32 4 32 C4 29.36 4 26.72 4 24 C-4.54824466 23.84126912 -4.54824466 23.84126912 -13 25 C-13.33 21.04 -13.66 17.08 -14 13 C-11 17 -11 17 -11 21 C-8.03 20.67 -5.06 20.34 -2 20 C-2 16.04 -2 12.08 -2 8 C-1.67 8 -1.34 8 -1 8 C-0.67 11.96 -0.34 15.92 0 20 C0 13.4 0 6.8 0 0 Z " fill="#76777A" transform="translate(206,100)"/>
<path d="M0 0 C0.66 0 1.32 0 2 0 C1.98839844 1.24136719 1.97679687 2.48273438 1.96484375 3.76171875 C1.95546132 5.40364432 1.9463616 7.04557153 1.9375 8.6875 C1.92912109 9.50412109 1.92074219 10.32074219 1.91210938 11.16210938 C1.89557949 15.24499084 1.96964902 19.01651707 3 23 C2.34 23 1.68 23 1 23 C1.15597656 23.61488281 1.31195313 24.22976562 1.47265625 24.86328125 C1.76462891 26.07564453 1.76462891 26.07564453 2.0625 27.3125 C2.25972656 28.11300781 2.45695313 28.91351563 2.66015625 29.73828125 C3 32 3 32 2 35 C0.35 35 -1.3 35 -3 35 C-3 33.68 -3 32.36 -3 31 C-2.34 31 -1.68 31 -1 31 C-1.14049518 29.52031676 -1.28754826 28.04125484 -1.4375 26.5625 C-1.51871094 25.73878906 -1.59992188 24.91507813 -1.68359375 24.06640625 C-1.78930815 22.01337975 -1.78930815 22.01337975 -3 21 C-3.04063832 19.33382885 -3.042721 17.66611905 -3 16 C-2.34 16 -1.68 16 -1 16 C-1.01160156 14.92878906 -1.02320313 13.85757813 -1.03515625 12.75390625 C-1.04453299 11.35677257 -1.05363331 9.95963701 -1.0625 8.5625 C-1.07506836 7.50192383 -1.07506836 7.50192383 -1.08789062 6.41992188 C-1.09653588 4.61306441 -1.05220011 2.80612397 -1 1 C-0.67 0.67 -0.34 0.34 0 0 Z " fill="#5D646A" transform="translate(224,162)"/>
<path d="M0 0 C0.83917969 0.10828125 0.83917969 0.10828125 1.6953125 0.21875 C9.14082655 1.08061015 16.51172488 1.0971102 24 1 C24 1.66 24 2.32 24 3 C27.63 3 31.26 3 35 3 C35 3.66 35 4.32 35 5 C23.12 5 11.24 5 -1 5 C-0.67 3.35 -0.34 1.7 0 0 Z " fill="#B5C1C8" transform="translate(186,192)"/>
<path d="M0 0 C11.55 0 23.1 0 35 0 C35.495 0.99 35.495 0.99 36 2 C35.34 2 34.68 2 34 2 C34 2.66 34 3.32 34 4 C31.01405576 5.49297212 28.29146376 5.11755228 25 5 C24.34 4.67 23.68 4.34 23 4 C23 3.34 23 2.68 23 2 C22.38253906 2.0721875 21.76507813 2.144375 21.12890625 2.21875 C6.46326179 3.82594391 6.46326179 3.82594391 0 2 C0 1.34 0 0.68 0 0 Z " fill="#CFD8DD" transform="translate(187,191)"/>
<path d="M0 0 C3.63 0 7.26 0 11 0 C12.54578627 3.09157253 11.60277633 5.68473019 11 9 C10 10 10 10 6.4375 10.0625 C5.303125 10.041875 4.16875 10.02125 3 10 C3 9.34 3 8.68 3 8 C2.34 8 1.68 8 1 8 C0.67 5.36 0.34 2.72 0 0 Z " fill="#F1F6F9" transform="translate(211,163)"/>
<path d="M0 0 C0.66 0 1.32 0 2 0 C2.06058594 0.74765625 2.12117187 1.4953125 2.18359375 2.265625 C2.26738281 3.25046875 2.35117188 4.2353125 2.4375 5.25 C2.51871094 6.22453125 2.59992188 7.1990625 2.68359375 8.203125 C2.92791167 10.92700379 2.92791167 10.92700379 3.56640625 13.234375 C4.10942746 15.44559651 3.5464387 16.81424521 3 19 C3.30271961 20.34061543 3.63837971 21.67405895 4 23 C4.04063832 24.66617115 4.042721 26.33388095 4 28 C4 28.99 4 29.98 4 31 C3.6937566 32.33981486 3.36548445 33.67511887 3 35 C1.68 34.67 0.36 34.34 -1 34 C-0.649375 33.2575 -0.29875 32.515 0.0625 31.75 C1.08991606 28.73624622 0.91526315 27.92884208 0 25 C0 23.33333333 0 21.66666667 0 20 C-0.185625 19.319375 -0.37125 18.63875 -0.5625 17.9375 C-1 16 -1 16 -0.53125 14.26953125 C0.14429176 11.38357713 0.09468202 8.71074542 0.0625 5.75 C0.05347656 4.67234375 0.04445312 3.5946875 0.03515625 2.484375 C0.02355469 1.66453125 0.01195312 0.8446875 0 0 Z " fill="#828F98" transform="translate(182,162)"/>
<path d="M0 0 C0.33 0 0.66 0 1 0 C1.85373239 7.02804699 2.12109311 13.92278069 2 21 C-0.31 20.67 -2.62 20.34 -5 20 C-5.02687279 18.18757948 -5.04633715 16.37504767 -5.0625 14.5625 C-5.07410156 13.55316406 -5.08570313 12.54382813 -5.09765625 11.50390625 C-5 9 -5 9 -4 8 C-3.95919217 6.00041636 -3.95745644 3.99954746 -4 2 C-2.68 2 -1.36 2 0 2 C0 1.34 0 0.68 0 0 Z " fill="#ECECED" transform="translate(205,100)"/>
<path d="M0 0 C0.33 0 0.66 0 1 0 C1.85192002 12.23451808 -2.37201312 21.36679528 -8 32 C-8.66 32 -9.32 32 -10 32 C-9.67 29.69 -9.34 27.38 -9 25 C-8.34 25 -7.68 25 -7 25 C-6.87882812 24.33613281 -6.75765625 23.67226562 -6.6328125 22.98828125 C-4.44144144 11.44144144 -4.44144144 11.44144144 -2 9 C-1.79395915 7.67218122 -1.6337041 6.33704105 -1.5 5 C-1.11111111 1.11111111 -1.11111111 1.11111111 0 0 Z " fill="#DBDCDD" transform="translate(266,65)"/>
<path d="M0 0 C1.4540625 0.0309375 1.4540625 0.0309375 2.9375 0.0625 C-0.0625 2.0625 -0.0625 2.0625 -2.0625 2.0625 C-1.7325 3.0525 -1.4025 4.0425 -1.0625 5.0625 C-0.0725 5.0625 0.9175 5.0625 1.9375 5.0625 C2.5975 4.0725 3.2575 3.0825 3.9375 2.0625 C3.9375 3.3825 3.9375 4.7025 3.9375 6.0625 C5.9175 6.7225 7.8975 7.3825 9.9375 8.0625 C6.37063662 10.44040892 3.16974505 11.1449999 -1.0625 11.0625 C-4.06045835 9.72298669 -5.59029875 9.0069025 -7.0625 6.0625 C-6.0725 6.0625 -5.0825 6.0625 -4.0625 6.0625 C-4.083125 5.258125 -4.10375 4.45375 -4.125 3.625 C-4.03366838 -0.11959638 -3.80090148 0.07756942 0 0 Z " fill="#5B5C5E" transform="translate(202.0625,128.9375)"/>
<path d="M0 0 C0 5.28 0 10.56 0 16 C-1.65 16.66 -3.3 17.32 -5 18 C-5.02701408 15.89590361 -5.04640223 13.79170822 -5.0625 11.6875 C-5.07410156 10.51574219 -5.08570313 9.34398437 -5.09765625 8.13671875 C-5 5 -5 5 -4 2 C-1 0 -1 0 0 0 Z " fill="#EFF0F1" transform="translate(211,139)"/>
<path d="M0 0 C0.66 0 1.32 0 2 0 C4.33855982 3.65399972 4.07721498 6.75317631 4 11 C4.33 11.99 4.66 12.98 5 14 C4.34 14 3.68 14 3 14 C3 15.65 3 17.3 3 19 C1.68 19 0.36 19 -1 19 C-1.33 18.01 -1.66 17.02 -2 16 C-1.649375 15.360625 -1.29875 14.72125 -0.9375 14.0625 C-0.4734375 13.0415625 -0.4734375 13.0415625 0 12 C-0.33 11.4225 -0.66 10.845 -1 10.25 C-2.62260233 6.59914476 -1.12388454 3.74628182 0 0 Z " fill="#ACBEC9" transform="translate(179,178)"/>
<path d="M0 0 C0.33 0 0.66 0 1 0 C1.33 2.31 1.66 4.62 2 7 C2.99 7.33 3.98 7.66 5 8 C5 5.36 5 2.72 5 0 C6.98 0 8.96 0 11 0 C11.33 2.97 11.66 5.94 12 9 C10.18757948 9.02687279 8.37504767 9.04633715 6.5625 9.0625 C5.55316406 9.07410156 4.54382813 9.08570313 3.50390625 9.09765625 C1 9 1 9 0 8 C-0.14115161 5.32941149 -0.04247107 2.67567762 0 0 Z " fill="#919EA7" transform="translate(195,163)"/>
<path d="M0 0 C0.33 0 0.66 0 1 0 C1 4.29 1 8.58 1 13 C0.67 12.34 0.34 11.68 0 11 C-0.495 11.165 -0.99 11.33 -1.5 11.5 C-5.03444089 12.20688818 -8.39690701 12.06005155 -12 12 C-11.67 11.01 -11.34 10.02 -11 9 C-10.96045766 6.66700175 -10.95598268 4.33291811 -11 2 C-10.67 3.32 -10.34 4.64 -10 6 C-9.34 6 -8.68 6 -8 6 C-8 6.66 -8 7.32 -8 8 C-4.535 7.505 -4.535 7.505 -1 7 C-0.67 4.69 -0.34 2.38 0 0 Z " fill="#C4CDD3" transform="translate(222,165)"/>
<path d="M0 0 C0.33 0 0.66 0 1 0 C1 1.98 1 3.96 1 6 C-1.64 6 -4.28 6 -7 6 C-7 9.3 -7 12.6 -7 16 C-7.33 16 -7.66 16 -8 16 C-8 12.37 -8 8.74 -8 5 C-8.66 5 -9.32 5 -10 5 C-9.67 9.95 -9.34 14.9 -9 20 C-9.66 20.33 -10.32 20.66 -11 21 C-11.77249145 15.59255982 -12.09752461 10.46137814 -12 5 C-12.66 4.67 -13.32 4.34 -14 4 C-7.565 3.505 -7.565 3.505 -1 3 C-0.67 2.01 -0.34 1.02 0 0 Z " fill="#B5C0C8" transform="translate(192,157)"/>
<path d="M0 0 C3.3 0 6.6 0 10 0 C9.01 0.495 9.01 0.495 8 1 C7.34172224 3.64056545 7.34172224 3.64056545 6.9375 6.75 C6.37511202 10.52404163 5.78167362 14.26456853 5 18 C4.01 18 3.02 18 2 18 C2 17.01 2 16.02 2 15 C2.66 15 3.32 15 4 15 C3.67 12.03 3.34 9.06 3 6 C2.01 6.495 2.01 6.495 1 7 C0.67 4.69 0.34 2.38 0 0 Z " fill="#DDDDDF" transform="translate(199,140)"/>
<path d="M0 0 C0.66 0 1.32 0 2 0 C1.67 5.28 1.34 10.56 1 16 C-0.32 15.67 -1.64 15.34 -3 15 C-3 12.69 -3 10.38 -3 8 C-3.99 8 -4.98 8 -6 8 C-6 7.01 -6 6.02 -6 5 C-4.02 5 -2.04 5 0 5 C0 3.35 0 1.7 0 0 Z " fill="#7A8186" transform="translate(199,155)"/>
<path d="M0 0 C0.33 0 0.66 0 1 0 C1.13277344 0.92683594 1.26554688 1.85367188 1.40234375 2.80859375 C1.57894531 4.00613281 1.75554687 5.20367187 1.9375 6.4375 C2.11152344 7.63246094 2.28554687 8.82742187 2.46484375 10.05859375 C2.68985213 12.87955676 2.68985213 12.87955676 4 14 C4.04080783 15.99958364 4.04254356 18.00045254 4 20 C4.66 20 5.32 20 6 20 C6.33 22.31 6.66 24.62 7 27 C5 24 5 24 5 21 C3.68 21.33 2.36 21.66 1 22 C-1.53551921 14.54259055 -0.80612738 7.75625262 0 0 Z " fill="#E1E2E3" transform="translate(143,60)"/>
<path d="M0 0 C1.32 0 2.64 0 4 0 C4.125 6.625 4.125 6.625 3 10 C3.38932856 12.14255793 3.38932856 12.14255793 4 14 C2.35 14.33 0.7 14.66 -1 15 C-0.67 10.05 -0.34 5.1 0 0 Z " fill="#E8ECEF" transform="translate(229,162)"/>
<path d="M0 0 C3.96 0 7.92 0 12 0 C12 1.65 12 3.3 12 5 C7.71 5 3.42 5 -1 5 C-0.67 3.35 -0.34 1.7 0 0 Z " fill="#8B989F" transform="translate(197,179)"/>
<path d="M0 0 C0 0.66 0 1.32 0 2 C-1.98 2.33 -3.96 2.66 -6 3 C-5.979375 4.175625 -5.95875 5.35125 -5.9375 6.5625 C-5.93052739 10.47413467 -6.35749657 14.14497944 -7 18 C-7.66 18 -8.32 18 -9 18 C-10.47378188 13.08739375 -10.01248139 7.97436509 -9 3 C-6.15236477 0.15236477 -3.96383452 0 0 0 Z " fill="#C0C4C8" transform="translate(235,159)"/>
<path d="M0 0 C0.33 0 0.66 0 1 0 C1.08132642 3.04221065 1.14065374 6.0822238 1.1875 9.125 C1.22520508 10.40890625 1.22520508 10.40890625 1.26367188 11.71875 C1.32398809 16.94615526 0.85261993 20.43281324 -2 25 C-4.31 25 -6.62 25 -9 25 C-8.67 24.34 -8.34 23.68 -8 23 C-5.9375 22.375 -5.9375 22.375 -4 22 C-3.86722656 21.36191406 -3.73445312 20.72382813 -3.59765625 20.06640625 C-3.42105469 19.24011719 -3.24445313 18.41382813 -3.0625 17.5625 C-2.88847656 16.73878906 -2.71445313 15.91507813 -2.53515625 15.06640625 C-2 13 -2 13 -1 12 C-0.76572222 9.98405418 -0.58663876 7.961526 -0.4375 5.9375 C-0.35371094 4.83277344 -0.26992187 3.72804687 -0.18359375 2.58984375 C-0.12300781 1.73519531 -0.06242188 0.88054687 0 0 Z " fill="#DBDCDD" transform="translate(238,135)"/>
<path d="M0 0 C0.66 0 1.32 0 2 0 C2.08139142 2.39652528 2.14067009 4.79025436 2.1875 7.1875 C2.21263672 7.86103516 2.23777344 8.53457031 2.26367188 9.22851562 C2.32869757 13.6719384 1.80384843 16.50367569 -1 20 C-1.66 20 -2.32 20 -3 20 C-3 18.68 -3 17.36 -3 16 C-2.34 16 -1.68 16 -1 16 C-1.01160156 14.92878906 -1.02320313 13.85757813 -1.03515625 12.75390625 C-1.04453299 11.35677257 -1.05363331 9.95963701 -1.0625 8.5625 C-1.07506836 7.50192383 -1.07506836 7.50192383 -1.08789062 6.41992188 C-1.09653588 4.61306441 -1.05220011 2.80612397 -1 1 C-0.67 0.67 -0.34 0.34 0 0 Z " fill="#5A6166" transform="translate(224,162)"/>
<path d="M0 0 C0 0.66 0 1.32 0 2 C-0.66 2 -1.32 2 -2 2 C-2 2.66 -2 3.32 -2 4 C-9.03482474 4.23668569 -15.1834265 3.7879537 -22 2 C-22 1.67 -22 1.34 -22 1 C-19.08340625 0.83196579 -16.16673658 0.66552033 -13.25 0.5 C-12.0125 0.42845703 -12.0125 0.42845703 -10.75 0.35546875 C-9.55117187 0.28779297 -9.55117187 0.28779297 -8.328125 0.21875 C-7.5949707 0.17685547 -6.86181641 0.13496094 -6.10644531 0.09179688 C-4.07266386 0.00316662 -2.03571175 0 0 0 Z " fill="#D4DDE1" transform="translate(222,176)"/>
<path d="M0 0 C1 2 1 2 1 7 C-3.95 7 -8.9 7 -14 7 C-13.34 6.67 -12.68 6.34 -12 6 C-12 5.34 -12 4.68 -12 4 C-8.07561214 2.33510818 -4.10899581 1.12795963 0 0 Z " fill="#BCC8CE" transform="translate(222,185)"/>
<path d="M0 0 C1.20076172 0.31324219 1.20076172 0.31324219 2.42578125 0.6328125 C3.23402344 0.83648437 4.04226562 1.04015625 4.875 1.25 C5.48988281 1.41757813 6.10476562 1.58515625 6.73828125 1.7578125 C6.73828125 3.0778125 6.73828125 4.3978125 6.73828125 5.7578125 C5.11227184 5.670812 3.48738447 5.5626344 1.86328125 5.4453125 C0.95835937 5.38730469 0.0534375 5.32929688 -0.87890625 5.26953125 C-3.26171875 4.7578125 -3.26171875 4.7578125 -5.26171875 1.7578125 C-2.26171875 -0.2421875 -2.26171875 -0.2421875 0 0 Z " fill="#CAD6E1" transform="translate(189.26171875,178.2421875)"/>
<path d="M0 0 C0.33 0 0.66 0 1 0 C1.08636719 0.59167969 1.17273438 1.18335938 1.26171875 1.79296875 C2.27608993 7.49764334 3.49437236 10.3243564 8 14 C8.99 13.67 9.98 13.34 11 13 C11.99 14.485 11.99 14.485 13 16 C9.8125 16.8125 9.8125 16.8125 6 17 C3.321652 14.84567661 1.53745581 13.07491161 0 10 C-0.06996014 8.29297265 -0.08440154 6.58331997 -0.0625 4.875 C-0.05347656 3.96492187 -0.04445312 3.05484375 -0.03515625 2.1171875 C-0.02355469 1.41851562 -0.01195312 0.71984375 0 0 Z " fill="#D4D5D6" transform="translate(171,145)"/>
<path d="M0 0 C0 1.65 0 3.3 0 5 C-4.29 5 -8.58 5 -13 5 C-12.67 3.68 -12.34 2.36 -12 1 C-9.98177083 1.03255208 -7.96354167 1.06510417 -5.9453125 1.09765625 C-3.67210333 0.98353932 -2.2885712 0 0 0 Z " fill="#85929A" transform="translate(210,186)"/>
<path d="M0 0 C1.65 0 3.3 0 5 0 C5 0.99 5 1.98 5 3 C3.35 3 1.7 3 0 3 C0 5.97 0 8.94 0 12 C-0.99 12 -1.98 12 -3 12 C-3 9.03 -3 6.06 -3 3 C-2.34 3 -1.68 3 -1 3 C-0.67 2.01 -0.34 1.02 0 0 Z " fill="#6D767C" transform="translate(210,160)"/>
<path d="M0 0 C3.3 0 6.6 0 10 0 C10 0.99 10 1.98 10 3 C9 4 9 4 6.71484375 4.09765625 C5.34005859 4.08025391 5.34005859 4.08025391 3.9375 4.0625 C3.01839844 4.05347656 2.09929687 4.04445312 1.15234375 4.03515625 C0.44207031 4.02355469 -0.26820313 4.01195312 -1 4 C-0.67 2.68 -0.34 1.36 0 0 Z " fill="#E6EDF1" transform="translate(212,183)"/>
<path d="M0 0 C0.33 0 0.66 0 1 0 C1 1.65 1 3.3 1 5 C-2.63 5 -6.26 5 -10 5 C-10 5.66 -10 6.32 -10 7 C-10.99 6.67 -11.98 6.34 -13 6 C-12.34 6 -11.68 6 -11 6 C-11 4.68 -11 3.36 -11 2 C-7.37 2 -3.74 2 0 2 C0 1.34 0 0.68 0 0 Z " fill="#BDC9D0" transform="translate(220,178)"/>
<path d="M0 0 C6.76594019 -0.11381955 13.28837062 0.11978631 20 1 C16.59336868 3.07182145 13.95164035 3.24183505 10 3.1875 C8.453125 3.17783203 8.453125 3.17783203 6.875 3.16796875 C4.41931318 3.02449792 2.34492245 2.7046041 0 2 C0 1.34 0 0.68 0 0 Z " fill="#E4E9ED" transform="translate(187,191)"/>
<path d="M0 0 C1.32 0.66 2.64 1.32 4 2 C5.09658936 5.28976808 4.79953138 6.71303767 4 10 C2.35 10.33 0.7 10.66 -1 11 C-0.67 7.37 -0.34 3.74 0 0 Z " fill="#CDCED0" transform="translate(194,125)"/>
<path d="M0 0 C1.32 0 2.64 0 4 0 C4 0.66 4 1.32 4 2 C4.99 2.33 5.98 2.66 7 3 C6.25 7.75 6.25 7.75 4 10 C3.34 9.67 2.68 9.34 2 9 C1.4375 6.6875 1.4375 6.6875 1 4 C0.67516582 2.66457061 0.3449145 1.33038449 0 0 Z " fill="#DEE4E9" transform="translate(226,186)"/>
<path d="M0 0 C3.63 0.33 7.26 0.66 11 1 C11 1.99 11 2.98 11 4 C7.7 4 4.4 4 1 4 C0.67 2.68 0.34 1.36 0 0 Z " fill="#C5D2DD" transform="translate(185,172)"/>
<path d="M0 0 C-0.33 0.66 -0.66 1.32 -1 2 C-0.34 2.66 0.32 3.32 1 4 C-0.32 4 -1.64 4 -3 4 C-3 3.34 -3 2.68 -3 2 C-4.03125 1.855625 -5.0625 1.71125 -6.125 1.5625 C-9.42549813 1.08339543 -12.71268341 0.56124917 -16 0 C-16 -0.33 -16 -0.66 -16 -1 C-10.31150252 -2.49697302 -5.58190932 -1.3348044 0 0 Z " fill="#D7D8D9" transform="translate(229,3)"/>
<path d="M0 0 C0.99 0.495 0.99 0.495 2 1 C2.6328125 3.94140625 2.6328125 3.94140625 3.125 7.5625 C3.29257813 8.76003906 3.46015625 9.95757812 3.6328125 11.19140625 C3.75398437 12.11824219 3.87515625 13.04507813 4 14 C2.68 14 1.36 14 0 14 C0 9.38 0 4.76 0 0 Z " fill="#9D9FA2" transform="translate(193,146)"/>
<path d="M0 0 C1.6415049 3.2830098 0.51888624 6.42545033 0 10 C-2.3125 11.125 -2.3125 11.125 -5 12 C-5.99 11.34 -6.98 10.68 -8 10 C-7.34 8.68 -6.68 7.36 -6 6 C-6 7.32 -6 8.64 -6 10 C-5.34 10 -4.68 10 -4 10 C-3.87882813 9.36191406 -3.75765625 8.72382813 -3.6328125 8.06640625 C-3.46523437 7.24011719 -3.29765625 6.41382813 -3.125 5.5625 C-2.96257812 4.73878906 -2.80015625 3.91507813 -2.6328125 3.06640625 C-2.42398438 2.38449219 -2.21515625 1.70257813 -2 1 C-1.34 0.67 -0.68 0.34 0 0 Z " fill="#C4C6C8" transform="translate(213,125)"/>
<path d="M0 0 C1.06528748 2.73019786 1.07998186 3.79298812 0.00390625 6.578125 C-0.47175781 7.45984375 -0.94742187 8.3415625 -1.4375 9.25 C-1.91058594 10.14203125 -2.38367188 11.0340625 -2.87109375 11.953125 C-3.24363281 12.62859375 -3.61617188 13.3040625 -4 14 C-4.66 14 -5.32 14 -6 14 C-5.67 11.69 -5.34 9.38 -5 7 C-4.34 7 -3.68 7 -3 7 C-2.690625 6.030625 -2.38125 5.06125 -2.0625 4.0625 C-1 1 -1 1 0 0 Z " fill="#D9D9DB" transform="translate(262,83)"/>
<path d="M0 0 C0.66 0.33 1.32 0.66 2 1 C1.67 1.99 1.34 2.98 1 4 C1.99 3.67 2.98 3.34 4 3 C4.33 3.66 4.66 4.32 5 5 C3.35 5.33 1.7 5.66 0 6 C0 5.01 0 4.02 0 3 C-2.31 3.33 -4.62 3.66 -7 4 C-7 3.67 -7 3.34 -7 3 C-9.97 2.505 -9.97 2.505 -13 2 C-13 1.67 -13 1.34 -13 1 C-11.39592672 0.97291433 -9.7917215 0.95356517 -8.1875 0.9375 C-7.29417969 0.92589844 -6.40085938 0.91429687 -5.48046875 0.90234375 C-3 1 -3 1 0 2 C0 1.34 0 0.68 0 0 Z " fill="#D4DCE0" transform="translate(210,183)"/>
<path d="M0 0 C4.29 0 8.58 0 13 0 C13 0.99 13 1.98 13 3 C8.71 3 4.42 3 0 3 C0 2.01 0 1.02 0 0 Z " fill="#86929A" transform="translate(196,173)"/>
<path d="M0 0 C1.4540625 0.0309375 1.4540625 0.0309375 2.9375 0.0625 C-0.0625 2.0625 -0.0625 2.0625 -2.0625 2.0625 C-1.7840625 3.2071875 -1.7840625 3.2071875 -1.5 4.375 C-1.0625 7.0625 -1.0625 7.0625 -2.0625 10.0625 C-5.9375 8.3125 -5.9375 8.3125 -7.0625 6.0625 C-6.0725 6.0625 -5.0825 6.0625 -4.0625 6.0625 C-4.083125 5.258125 -4.10375 4.45375 -4.125 3.625 C-4.03366838 -0.11959638 -3.80090148 0.07756942 0 0 Z " fill="#666769" transform="translate(202.0625,128.9375)"/>
<path d="M0 0 C0.33 0 0.66 0 1 0 C1 1.65 1 3.3 1 5 C1.66 5.33 2.32 5.66 3 6 C2.34 6 1.68 6 1 6 C0.67 7.98 0.34 9.96 0 12 C-0.061875 11.38125 -0.12375 10.7625 -0.1875 10.125 C-0.81491786 7.79341824 -0.81491786 7.79341824 -3.1875 6.8125 C-6.1148728 5.96681452 -8.98376679 5.42086975 -12 5 C-12 4.67 -12 4.34 -12 4 C-8.7 4 -5.4 4 -2 4 C-1.34 2.68 -0.68 1.36 0 0 Z " fill="#747273" transform="translate(214,73)"/>
<path d="M0 0 C1.5625 1.1875 1.5625 1.1875 3 3 C2.75 5.1875 2.75 5.1875 2 8 C1.79461133 9.43505331 1.60791502 10.87287462 1.4375 12.3125 C1.293125 13.529375 1.14875 14.74625 1 16 C0.34 16 -0.32 16 -1 16 C-1.33 15.01 -1.66 14.02 -2 13 C-1.649375 12.360625 -1.29875 11.72125 -0.9375 11.0625 C-0.4734375 10.0415625 -0.4734375 10.0415625 0 9 C-0.33 8.360625 -0.66 7.72125 -1 7.0625 C-2 5 -2 5 -1.125 2.25 C-0.75375 1.5075 -0.3825 0.765 0 0 Z " fill="#DAE4ED" transform="translate(179,181)"/>
<path d="M0 0 C0.33 0.99 0.66 1.98 1 3 C4.63 3 8.26 3 12 3 C12 3.66 12 4.32 12 5 C7.67265609 7.22923777 4.71599818 6.92470553 0 6 C0 4.02 0 2.04 0 0 Z " fill="#C7C8CA" transform="translate(215,157)"/>
<path d="M0 0 C3.63 0 7.26 0 11 0 C11.33 0.66 11.66 1.32 12 2 C7.9472484 2.98248524 4.16138263 3.08159574 0 3 C0 2.01 0 1.02 0 0 Z " fill="#EBF0F4" transform="translate(211,191)"/>
<path d="M0 0 C0.33 0 0.66 0 1 0 C1 3.96 1 7.92 1 12 C0.01 11.67 -0.98 11.34 -2 11 C-2.93750716 7.33519927 -3.28668844 5.59943946 -1.625 2.125 C-1.08875 1.42375 -0.5525 0.7225 0 0 Z " fill="#EDEEEE" transform="translate(202,143)"/>
<path d="M0 0 C3.96 0 7.92 0 12 0 C12 0.99 12 1.98 12 3 C7.71 3 3.42 3 -1 3 C-0.67 2.01 -0.34 1.02 0 0 Z " fill="#859199" transform="translate(197,194)"/>
<path d="M0 0 C0.99 0.495 0.99 0.495 2 1 C2.39044206 2.31774196 2.70955086 3.65667272 3 5 C3.88319294 8.15020361 3.88319294 8.15020361 5 11 C5.66 11.33 6.32 11.66 7 12 C5.02 12 3.04 12 1 12 C0.67 8.04 0.34 4.08 0 0 Z " fill="#C3CACF" transform="translate(225,185)"/>
<path d="M0 0 C1.09184691 3.27554074 0.88854859 4.26059375 0.0625 7.5 C-0.61143775 10.17789836 -1 12.21344291 -1 15 C-2.32 15 -3.64 15 -5 15 C-5 14.34 -5 13.68 -5 13 C-5.66 12.67 -6.32 12.34 -7 12 C-6.01 11.67 -5.02 11.34 -4 11 C-2.75049948 8.44598152 -2.75049948 8.44598152 -1.8125 5.4375 C-1.46832031 4.42558594 -1.12414062 3.41367188 -0.76953125 2.37109375 C-0.51558594 1.58863281 -0.26164063 0.80617188 0 0 Z " fill="#898889" transform="translate(212,85)"/>
<path d="M0 0 C0.33 0 0.66 0 1 0 C1.9765625 6.0546875 1.9765625 6.0546875 2 8 C1.34 8.66 0.68 9.32 0 10 C-0.33 9.67 -0.66 9.34 -1 9 C-1.66 9.66 -2.32 10.32 -3 11 C-2.44894091 7.0507432 -1.61064629 3.65079826 0 0 Z " fill="#E4E5E5" transform="translate(263,75)"/>
<path d="M0 0 C1.0625 1.8125 1.0625 1.8125 2 4 C1.67 4.99 1.34 5.98 1 7 C0.34 7 -0.32 7 -1 7 C-1 8.98 -1 10.96 -1 13 C-1.33 13 -1.66 13 -2 13 C-2.2493357 11.39884424 -2.47378648 9.79379841 -2.6875 8.1875 C-2.81511719 7.29417969 -2.94273437 6.40085937 -3.07421875 5.48046875 C-3 3 -3 3 -1.51953125 1.17578125 C-1.01808594 0.78777344 -0.51664063 0.39976563 0 0 Z " fill="#67676A" transform="translate(212,119)"/>
<path d="M0 0 C3.3 0.66 6.6 1.32 10 2 C7 4 7 4 3.8125 3.625 C2.884375 3.41875 1.95625 3.2125 1 3 C1 3.66 1 4.32 1 5 C0.34 5 -0.32 5 -1 5 C-0.67 3.35 -0.34 1.7 0 0 Z " fill="#BCC7D2" transform="translate(186,192)"/>
<path d="M0 0 C0.33 0 0.66 0 1 0 C1.84681133 5.08086796 2.09038099 9.84828377 2 15 C1.34 15 0.68 15 0 15 C-1.5111995 9.96266834 -0.64599773 5.11828973 0 0 Z " fill="#9AA5AB" transform="translate(226,162)"/>
<path d="M0 0 C0.33 0 0.66 0 1 0 C1.19672365 1.72814161 1.38196799 3.45759197 1.5625 5.1875 C1.66691406 6.15042969 1.77132812 7.11335937 1.87890625 8.10546875 C1.99758751 10.94233377 1.67765639 13.25423671 1 16 C0.01 16 -0.98 16 -2 16 C-2 15.01 -2 14.02 -2 13 C-1.34 13 -0.68 13 0 13 C0 8.71 0 4.42 0 0 Z " fill="#CACBCD" transform="translate(203,142)"/>
<path d="M0 0 C0.66 0.66 1.32 1.32 2 2 C1.01 2 0.02 2 -1 2 C-0.34 3.65 0.32 5.3 1 7 C0.01 7.66 -0.98 8.32 -2 9 C-2.73080266 7.02253397 -3.39421747 5.01927511 -4 3 C-3 1 -3 1 0 0 Z " fill="#DCE0E2" transform="translate(229,176)"/>
<path d="M0 0 C2.31 0.33 4.62 0.66 7 1 C7 1.99 7 2.98 7 4 C4.36 3.67 1.72 3.34 -1 3 C-0.67 2.01 -0.34 1.02 0 0 Z " fill="#B3C1CB" transform="translate(189,179)"/>
<path d="M0 0 C0 0.66 0 1.32 0 2 C-3.73437848 2.87867729 -7.16774573 3.08912219 -11 3 C-11 2.34 -11 1.68 -11 1 C-7.26513121 0.4254048 -3.78706732 0 0 0 Z " fill="#F0F4F7" transform="translate(222,176)"/>
<path d="M0 0 C3.50281042 4.67041389 3.5344992 6.41399038 4 12 C3.01 12 2.02 12 1 12 C0.67 8.04 0.34 4.08 0 0 Z " fill="#565556" transform="translate(192,113)"/>
<path d="M0 0 C1.98 0 3.96 0 6 0 C5.67 1.32 5.34 2.64 5 4 C3.35 4 1.7 4 0 4 C0 2.68 0 1.36 0 0 Z " fill="#7A8389" transform="translate(221,193)"/>
<path d="M0 0 C1.04449911 3.13349732 0.93423645 3.98968256 0 7 C-0.99 7 -1.98 7 -3 7 C-3.33 6.34 -3.66 5.68 -4 5 C-3.34 5 -2.68 5 -2 5 C-1.7834375 4.0409375 -1.7834375 4.0409375 -1.5625 3.0625 C-1 1 -1 1 0 0 Z " fill="#7F898F" transform="translate(225,177)"/>
<path d="M0 0 C-2.46278801 2.46278801 -4.70676982 2.99771255 -8 4 C-8 2.68 -8 1.36 -8 0 C-4.94736336 -0.98120464 -3.05263664 -0.98120464 0 0 Z " fill="#919295" transform="translate(204,121)"/>
<path d="M0 0 C0.99 0.495 0.99 0.495 2 1 C4.09821215 0.60061233 4.09821215 0.60061233 6 0 C6 1.32 6 2.64 6 4 C4.02 4 2.04 4 0 4 C0 2.68 0 1.36 0 0 Z " fill="#C6C7C9" transform="translate(205,155)"/>
<path d="M0 0 C2.125 0.9375 2.125 0.9375 4 2 C-2.625 5 -2.625 5 -6 5 C-2.25 1.125 -2.25 1.125 0 0 Z " fill="#D5D6D7" transform="translate(174,7)"/>
<path d="M0 0 C0.99 0 1.98 0 3 0 C3 1.65 3 3.3 3 5 C1.68 4.67 0.36 4.34 -1 4 C-0.67 2.68 -0.34 1.36 0 0 Z " fill="#86939D" transform="translate(182,192)"/>
<path d="M0 0 C1.32 0 2.64 0 4 0 C4.625 2.375 4.625 2.375 5 5 C4.34 5.66 3.68 6.32 3 7 C2.34 6.67 1.68 6.34 1 6 C0.375 2.9375 0.375 2.9375 0 0 Z " fill="#ECEEF0" transform="translate(227,189)"/>
<path d="M0 0 C1.65 0.99 3.3 1.98 5 3 C4.01 3.495 4.01 3.495 3 4 C2.67 4.66 2.34 5.32 2 6 C0.68 4.68 -0.64 3.36 -2 2 C-1.34 2 -0.68 2 0 2 C0 1.34 0 0.68 0 0 Z " fill="#DADBDC" transform="translate(245,14)"/>
</svg>
